<?xml version="1.0" encoding="utf-8"?>
<!-- Generator: Adobe Illustrator 22.0.1, SVG Export Plug-In . SVG Version: 6.00 Build 0)  -->
<svg version="1.1" id="Layer_1" xmlns="http://www.w3.org/2000/svg" xmlns:xlink="http://www.w3.org/1999/xlink" x="0px" y="0px"
	 viewBox="0 0 1920 1080" style="enable-background:new 0 0 1920 1080;" xml:space="preserve">
<style type="text/css">
	.st0{fill:#37B34A;}
</style>
<path d="M0-2v1082h1935V-2H0z M960,1073c-294.4,0-533-238.6-533-533S665.6,7,960,7s533,238.6,533,533S1254.4,1073,960,1073z"/>
<g>
	<circle cx="814.6" cy="685.4" r="104.4"/>
	<circle class="st0" cx="819.5" cy="394.6" r="104.4"/>
	<path d="M1377,540c0-230.3-186.7-417-417-417S543,309.7,543,540s186.7,417,417,417S1377,770.3,1377,540z M819.5,249.3
		c80.3,0,145.4,65.1,145.4,145.4c0-1.2,0-2.4,0-3.5c1.8-77.1,64.8-140,142-141.8c63.2-1.4,117.5,37.5,139,92.9h-45.4
		c-23.3-40-72.4-63.2-124.4-46.5c-30.9,9.9-55.3,34.4-65,65.4c-22.6,71.8,30.7,138,99.2,138c38.5,0,72.2-20.9,90.3-52h45.4
		c-21,54.4-73.8,92.9-135.6,92.9c-80.3,0-145.4-65.1-145.4-145.4c0,80.3-65.1,145.4-145.4,145.4s-145.4-65.1-145.4-145.4
		C674.1,314.3,739.2,249.3,819.5,249.3z M1209.8,685.4c0-50.6-36.1-92.8-83.9-102.4v247.8h-40.9V583c-47.8,9.5-83.9,51.8-83.9,102.4
		H960v145.4h-38.9v-46.4c-26.5,28.5-64.4,46.4-106.5,46.4c-80.3,0-145.4-65.1-145.4-145.4S734.3,540,814.6,540
		c80.3,0,145.4,65.1,145.4,145.4c0-80.3,65.1-145.4,145.4-145.4c80.3,0,145.4,65.1,145.4,145.4H1209.8z"/>
</g>
</svg>
